<svg xmlns="http://www.w3.org/2000/svg" xmlns:xlink="http://www.w3.org/1999/xlink" version="1.1" x="0px" y="0px" viewBox="1 -7 30 37.5" style="enable-background:new 1 -7 30 30; fill: white;" xml:space="preserve"><path d="M26,1h-1.6L25-1.6c0.2-1.1-0.5-2.1-1.6-2.4c-1.1-0.2-2.1,0.5-2.4,1.6L20.4,1h-5.9L15-1.6c0.2-1.1-0.5-2.1-1.6-2.4  c-1.1-0.2-2.1,0.5-2.4,1.6L10.4,1H8C6.9,1,6,1.9,6,3s0.9,2,2,2h1.6l-1.2,6H6c-1.1,0-2,0.9-2,2s0.9,2,2,2h1.6L7,17.6  c-0.2,1.1,0.5,2.1,1.6,2.4c0.1,0,0.3,0,0.4,0c0.9,0,1.8-0.7,2-1.6l0.7-3.4h5.9L17,17.6c-0.2,1.1,0.5,2.1,1.6,2.4c0.1,0,0.3,0,0.4,0  c0.9,0,1.8-0.7,2-1.6l0.7-3.4H24c1.1,0,2-0.9,2-2s-0.9-2-2-2h-1.6l1.2-6H26c1.1,0,2-0.9,2-2S27.1,1,26,1z M18.4,11h-5.9l1.2-6h5.9  L18.4,11z"/></svg>