<?xml version="1.0" encoding="UTF-8" standalone="no"?>
<svg
   xmlns:dc="http://purl.org/dc/elements/1.1/"
   xmlns:cc="http://creativecommons.org/ns#"
   xmlns:rdf="http://www.w3.org/1999/02/22-rdf-syntax-ns#"
   xmlns:svg="http://www.w3.org/2000/svg"
   xmlns="http://www.w3.org/2000/svg"
   viewBox="0 0 110.83337 156.25"
   height="156.25"
   width="110.83337"
   xml:space="preserve"
   version="1.1"
   id="svg2"><metadata
     id="metadata8"><rdf:RDF><cc:Work
         rdf:about=""><dc:format>image/svg+xml</dc:format><dc:type
           rdf:resource="http://purl.org/dc/dcmitype/StillImage" /></cc:Work></rdf:RDF></metadata><defs
     id="defs6"><clipPath
       id="clipPath16"
       clipPathUnits="userSpaceOnUse"><path
         id="path18"
         d="m 0,125 88.667,0 0,-125 L 0,0 0,125 Z" /></clipPath></defs><g
     transform="matrix(1.25,0,0,-1.25,0,156.25)"
     id="g10"><g
       id="g12"><g
         clip-path="url(#clipPath16)"
         id="g14"><g
           transform="translate(44.0906,58.6346)"
           id="g20"><path
             id="path22"
             style="fill:#ffffff;fill-opacity:1;fill-rule:nonzero;stroke:none"
             d="m 0,0 c -13.204,0 -23.837,10.632 -23.837,23.837 0,13.204 10.633,23.665 23.837,23.665 13.204,0 23.837,-10.632 23.837,-23.837 C 23.837,10.461 13.204,0 0,0 m 0,66.365 0,0 c -32.754,0 -53.332,-35.497 -36.87,-63.964 l 34.812,-60.364 c 0.858,-1.543 3.087,-1.543 4.116,0 L 36.87,2.401 C 53.332,30.868 32.754,66.365 0,66.365" /></g></g></g></g></svg>