<?xml version="1.0" encoding="UTF-8" standalone="no"?>
<svg
   xmlns:dc="http://purl.org/dc/elements/1.1/"
   xmlns:cc="http://creativecommons.org/ns#"
   xmlns:rdf="http://www.w3.org/1999/02/22-rdf-syntax-ns#"
   xmlns:svg="http://www.w3.org/2000/svg"
   xmlns="http://www.w3.org/2000/svg"
   viewBox="0 0 66.666664 92.307732"
   height="92.307732"
   width="66.666664"
   xml:space="preserve"
   id="svg2"
   version="1.1"><metadata
     id="metadata8"><rdf:RDF><cc:Work
         rdf:about=""><dc:format>image/svg+xml</dc:format><dc:type
           rdf:resource="http://purl.org/dc/dcmitype/StillImage" /></cc:Work></rdf:RDF></metadata><defs
     id="defs6"><clipPath
       id="clipPath18"
       clipPathUnits="userSpaceOnUse"><path
         id="path16"
         d="M 0,69.231 H 50 V 0 H 0 Z" /></clipPath></defs><g
     transform="matrix(1.3333333,0,0,-1.3333333,0,92.307733)"
     id="g10"><g
       id="g12"><g
         clip-path="url(#clipPath18)"
         id="g14"><g
           transform="translate(24.9385,24.6911)"
           id="g20"><path
             id="path22"
             style="fill:#8f191c;fill-opacity:1;fill-rule:nonzero;stroke:none"
             d="m 0,0 c -0.943,0.119 -12.471,1.57 -16.617,2.133 -0.501,0.068 -0.817,-0.513 -0.492,-0.9 5.409,-6.463 14.539,-21.533 16.701,-25.139 0.214,-0.356 0.725,-0.356 0.939,0 C 2.693,-20.3 11.823,-5.23 17.232,1.233 17.557,1.62 17.241,2.201 16.74,2.133 12.594,1.57 1.066,0.119 0.123,0 0.077,-0.006 0.046,-0.006 0,0" /></g><g
           transform="translate(50,44.2308)"
           id="g24"><path
             id="path26"
             style="fill:#ec2227;fill-opacity:1;fill-rule:nonzero;stroke:none"
             d="m 0,0 c 0,13.807 -11.193,25 -25,25 -13.807,0 -25,-11.193 -25,-25 0,-13.807 11.193,-25 25,-25 13.807,0 25,11.193 25,25" /></g></g></g></g></svg>